<svg width="23" height="23" viewBox="0 0 23 23" fill="none" xmlns="http://www.w3.org/2000/svg">
<rect x="0.373047" y="0.86731" width="22" height="22" rx="2" fill="#F2F2FF"/>
<path d="M11.456 16.7157C11.456 15.1986 9.02793 14.7601 7.62504 14.6331C7.35924 14.6089 7.11221 14.4858 6.93268 14.2883C6.75315 14.0908 6.65418 13.8332 6.65528 13.5663V8.18063C6.65534 8.03102 6.68686 7.88309 6.7478 7.74645C6.80873 7.60981 6.89773 7.48752 7.009 7.38751C7.12027 7.2875 7.25133 7.21202 7.39367 7.16596C7.53601 7.1199 7.68644 7.10429 7.8352 7.12015C9.25623 7.27058 11.456 7.73681 11.456 9.18137V16.7157Z" stroke="#5559DF" stroke-linecap="round" stroke-linejoin="round"/>
<path d="M11.4561 16.7157C11.4561 15.1986 13.8842 14.7601 15.2871 14.6331C15.5529 14.6089 15.7999 14.4858 15.9794 14.2883C16.159 14.0908 16.2579 13.8332 16.2568 13.5663V8.18063C16.2568 8.03102 16.2252 7.88309 16.1643 7.74645C16.1034 7.60981 16.0144 7.48752 15.9031 7.38751C15.7918 7.2875 15.6608 7.21202 15.5184 7.16596C15.3761 7.1199 15.2257 7.10429 15.0769 7.12015C13.6559 7.27058 11.4561 7.73681 11.4561 9.18137V16.7157Z" stroke="#5559DF" stroke-linecap="round" stroke-linejoin="round"/>
</svg>