<svg width="198" height="23" viewBox="0 0 198 23" fill="none" xmlns="http://www.w3.org/2000/svg">
<path fill-rule="evenodd" clip-rule="evenodd" d="M3.34841 17.5815C2.17894 17.5805 1.10217 16.9764 0.536169 16.0039C-0.0298326 15.0314 0.00408956 13.8437 0.624765 12.9018L6.41594 4.11589C7.01077 3.15923 8.105 2.58459 9.27388 2.61504C10.4428 2.6455 11.5022 3.27624 12.041 4.26244C12.5798 5.24864 12.513 6.43499 11.8667 7.36097L6.07892 16.1469C5.49025 17.0408 4.45811 17.5831 3.34841 17.5815Z" fill="#FB275D"/>
<path fill-rule="evenodd" clip-rule="evenodd" d="M13.325 17.5819C12.1555 17.5808 11.0787 16.9768 10.5127 16.0043C9.94673 15.0318 9.98065 13.844 10.6013 12.9021L16.3908 4.11626C16.9772 3.14333 18.0771 2.55353 19.2567 2.57943C20.4363 2.60533 21.5063 3.24277 22.0448 4.2404C22.5834 5.23804 22.504 6.43577 21.8381 7.36133L16.0486 16.1472C15.4612 17.0392 14.4322 17.5812 13.325 17.5819Z" fill="#FFCC00"/>
<path fill-rule="evenodd" clip-rule="evenodd" d="M23.3041 17.5817C25.0827 17.5817 26.5246 16.2444 26.5246 14.5948C26.5246 12.9452 25.0827 11.6079 23.3041 11.6079C21.5254 11.6079 20.0835 12.9452 20.0835 14.5948C20.0835 16.2444 21.5254 17.5817 23.3041 17.5817Z" fill="#00CA72"/>
<path d="M40.9376 6.63832C39.6616 6.63832 37.9896 7.23232 37.3736 8.70632V1.07232H35.9656V17.1323H37.3736V11.4343C37.4176 8.94832 39.1556 8.02432 40.8056 8.02432C42.4556 8.02432 43.7096 9.23432 43.7096 11.2143V17.1323H45.1176V11.1483C45.1176 8.31032 43.4236 6.63832 40.9376 6.63832ZM58.083 11.9623C58.083 8.70632 55.949 6.63832 53.023 6.63832C50.119 6.63832 47.787 8.70632 47.787 11.9623C47.787 15.2183 50.119 17.3523 53.023 17.3523C54.959 17.3523 56.719 16.4283 57.621 14.7783L56.411 14.2503C55.729 15.3723 54.475 16.0103 53.067 16.0103C50.999 16.0103 49.459 14.7783 49.217 12.5783H58.061C58.083 12.3803 58.083 12.1603 58.083 11.9623ZM49.239 11.3683C49.503 9.16832 50.999 7.98032 53.023 7.98032C55.025 7.98032 56.499 9.23432 56.697 11.3683H49.239ZM60.823 17.1323H62.231V1.07232H60.823V17.1323ZM71.2429 6.63832C69.5269 6.63832 67.8989 7.47432 67.1509 8.88232V6.85832H65.7429V22.1263H67.1509V15.1303C67.9209 16.5383 69.5049 17.3523 71.2429 17.3523C74.1249 17.3523 76.4569 15.1303 76.4569 12.0063C76.4569 8.88232 74.1249 6.63832 71.2429 6.63832ZM71.1329 16.0103C69.0869 16.0103 67.1509 14.4483 67.1509 11.9623C67.1509 9.58632 68.9989 7.98032 71.1329 7.98032C73.3109 7.98032 75.0709 9.74032 75.0709 12.0283C75.0709 14.2943 73.3109 16.0103 71.1329 16.0103ZM89.7659 17.3303C91.2399 17.3303 92.5379 16.8023 93.4619 15.9223L92.5819 14.9763C91.8779 15.6143 90.9099 15.9883 89.8099 15.9883C87.5659 15.9883 85.7399 14.3823 85.7399 11.9843C85.7399 9.56432 87.5659 7.98032 89.8099 7.98032C90.9099 7.98032 91.8779 8.37632 92.5819 9.01432L93.4619 8.04632C92.5379 7.18832 91.2399 6.63832 89.7659 6.63832C86.8399 6.63832 84.3319 8.72832 84.3319 11.9843C84.3319 15.2403 86.8399 17.3303 89.7659 17.3303ZM105.349 11.9623C105.349 8.70632 103.215 6.63832 100.289 6.63832C97.3846 6.63832 95.0526 8.70632 95.0526 11.9623C95.0526 15.2183 97.3846 17.3523 100.289 17.3523C102.225 17.3523 103.985 16.4283 104.887 14.7783L103.677 14.2503C102.995 15.3723 101.741 16.0103 100.333 16.0103C98.2646 16.0103 96.7246 14.7783 96.4826 12.5783H105.327C105.349 12.3803 105.349 12.1603 105.349 11.9623ZM96.5046 11.3683C96.7686 9.16832 98.2646 7.98032 100.289 7.98032C102.291 7.98032 103.765 9.23432 103.963 11.3683H96.5046ZM113.061 6.63832C111.785 6.63832 110.113 7.23232 109.497 8.70632V6.85832H108.089V17.1323H109.497V11.4343C109.541 8.94832 111.279 8.02432 112.929 8.02432C114.579 8.02432 115.833 9.23432 115.833 11.2143V17.1323H117.241V11.1483C117.241 8.31032 115.547 6.63832 113.061 6.63832ZM124.908 6.85832H122.554V2.76632H121.168V6.85832H119.298V8.06832H121.168V17.1323H122.554V8.06832H124.908V6.85832ZM136.436 11.9623C136.436 8.70632 134.302 6.63832 131.376 6.63832C128.472 6.63832 126.14 8.70632 126.14 11.9623C126.14 15.2183 128.472 17.3523 131.376 17.3523C133.312 17.3523 135.072 16.4283 135.974 14.7783L134.764 14.2503C134.082 15.3723 132.828 16.0103 131.42 16.0103C129.352 16.0103 127.812 14.7783 127.57 12.5783H136.414C136.436 12.3803 136.436 12.1603 136.436 11.9623ZM127.592 11.3683C127.856 9.16832 129.352 7.98032 131.376 7.98032C133.378 7.98032 134.852 9.23432 135.05 11.3683H127.592ZM143.819 6.63832C142.213 6.63832 141.113 7.62832 140.607 9.36632V6.85832H139.177V17.1323H140.607V13.2603C140.607 10.7303 141.355 8.00232 143.797 8.00232C144.171 8.00232 144.655 8.06832 145.183 8.28832L145.447 6.94632C145.051 6.74832 144.391 6.63832 143.819 6.63832Z" fill="#323338"/>
</svg>