<svg width="23" height="23" viewBox="0 0 23 23" fill="none" xmlns="http://www.w3.org/2000/svg">
<rect x="0.810547" y="0.816895" width="22" height="22" rx="2" fill="#F2F2FF"/>
<path d="M15.446 15.6418C12.6499 16.1437 9.78368 16.1437 6.98755 15.6418C6.72528 15.5919 6.4891 15.454 6.31983 15.2519C6.15057 15.0497 6.05886 14.7961 6.06057 14.5349V9.09885C6.05886 8.83761 6.15057 8.584 6.31983 8.38188C6.4891 8.17975 6.72528 8.04182 6.98755 7.99192C9.78368 7.49 12.6499 7.49 15.446 7.99192C15.7083 8.04182 15.9445 8.17975 16.1138 8.38188C16.283 8.584 16.3747 8.83761 16.373 9.09885V14.5349C16.3747 14.7961 16.283 15.0497 16.1138 15.2519C15.9445 15.454 15.7083 15.5919 15.446 15.6418Z" stroke="#5559DF" stroke-linecap="round" stroke-linejoin="round"/>
<path d="M9.78448 13.2285V10.4052C9.78224 10.3594 9.79266 10.314 9.81463 10.2736C9.8366 10.2332 9.86931 10.1993 9.90931 10.1756C9.94932 10.1518 9.99513 10.1391 10.0419 10.1387C10.0887 10.1383 10.1348 10.1502 10.1752 10.1732L12.5196 11.5849C12.5593 11.6099 12.592 11.6442 12.6146 11.6847C12.6373 11.7252 12.6491 11.7706 12.6491 11.8168C12.6491 11.863 12.6373 11.9084 12.6146 11.949C12.592 11.9895 12.5593 12.0238 12.5196 12.0487L10.1752 13.4604C10.1348 13.4834 10.0887 13.4954 10.0419 13.495C9.99513 13.4945 9.94932 13.4818 9.90931 13.4581C9.86931 13.4343 9.8366 13.4004 9.81463 13.36C9.79266 13.3196 9.78224 13.2742 9.78448 13.2285Z" fill="#5559DF"/>
</svg>